M48
;Layer_Color=9474304
;FILE_FORMAT=4:4
METRIC,LZ
;TYPE=PLATED
T1F00S00C0.9652
T2F00S00C1.0000
T3F00S00C1.4000
T4F00S00C2.5000
%
T01
X00312Y00733
Y007584
X00395
Y00733
T02
X00122Y00142
X00172
X00233
X00283
X00345
X00395
X00067Y00671
Y00721
T03
X00145Y00835
X00195
X00245
X00295
X00345
X00395
T04
X00045Y00045
X00495
X00045Y00875
X00495
M30
