M48
;Layer_Color=9474304
;FILE_FORMAT=4:4
METRIC
;TYPE=PLATED
T1F00S00C0.9652
T2F00S00C1.0000
T3F00S00C1.4000
T4F00S00C2.5000
%
T01
X00312000Y00733000
Y00758400
X00395000
Y00733000
T02
X00122000Y00142000
X00172000
X00233000
X00283000
X00345000
X00395000
X00067000Y00671000
Y00721000
T03
X00145000Y00835000
X00195000
X00245000
X00295000
X00345000
X00395000
T04
X00045000Y00045000
X00495000
X00045000Y00875000
X00495000
M30
